<?xml version="1.0" encoding="UTF-8"?>
<svg id="_レイヤー_1" data-name="レイヤー 1" xmlns="http://www.w3.org/2000/svg" viewBox="0 0 773.04 469.5">
  <defs>
    <style>
      .cls-1 {
        fill: #818181;
      }

      .cls-1, .cls-2 {
        stroke-width: 0px;
      }

      .cls-2 {
        fill: #8a8a8a;
      }
    </style>
  </defs>
  <path class="cls-1" d="m507.99,194.32c-.04,27.1-.01,54.23,1.14,81.3,1.03,29.41,4.58,59.87,25.46,82.57,30.12,34.17,82.07,44.6,124.4,30.07,39.47-8.99,50.5,51.12-.41,67.53-35.84,13.41-76,10.47-110.84-4.11-23.38-9.34-43.38-23.74-60.55-42.13-4.78-5.11-6.88-5.01-11.6.23-56,64.75-161.42,81.53-230.06,27.07-15.38-11.88-28.69-25.72-39.81-41.67-2.49-3.56-5.23-3.72-8.57-1.06-16.99,13.56-36,22.61-57.46,26.84C70.26,437.47-3.39,390.07.12,315.05c-1.47-40.41,50.24-65.84,66.75-21.08-3.35,50.6,50.12,73.03,87.17,43.03,6.61-5.53,10.41-13.36,12.23-21.9,8.61-29.58-9.36-59.14-36.21-71.65-52.99-29.19-110.61-45.83-109.02-118.51C22.13,54.53,87.1,3.01,154.44.53c42.8-3.52,91.46,10.22,111.15,51.54,12.34,23.29,14.85,63.82-17.42,72-46.7,8.27-29.59-43.68-72.62-49.12-32.18-7.3-70.88,14.45-72.46,49.38-.82,14.51,5.61,25.79,17.83,33.41,18.26,11.39,36.87,22.24,55.11,33.67,68.14,34.46,44.69,117.54,86.78,169.55,30.84,40.11,90.69,48.71,134.72,25.98,31.3-16.84,48.12-51.9,51.45-86.21,5.71-51.45,3.9-103.32,4.99-155,.07-6.39-1.49-7.9-7.82-7.91-17.26-.65-36.31,3.26-51.38-7.52-14.23-11.04-10.72-35.51,6.37-41.31,14.78-4.12,30.75-1.67,45.96-2.1,4.81.09,6.57-2.56,6.83-6.57,2.07-16.78-3.8-42.91,17.09-49.06,13.63-4.86,31.05,3.61,35.29,17.38,1.69,10.55,1,21.46,1.67,32.14.14,4.93,3.49,5.97,7.36,6.01,12.67.11,25.36.55,37.99-.09,13.97-.71,29.37,17.09,21.65,34.18-10.66,23.24-38.77,15.92-59.27,16.96-6.05,0-7.71,1.62-7.71,7.52-.01,16.33,0,32.67,0,49Z"/>
  <path class="cls-2" d="m736.7,197.05c-.87,7.25-2.46,19.95-3.91,32.66-1.13,9.95-2.31,19.9-3.04,29.88-.91,12.51-1.51,25.05-1.97,37.59-.12,3.39.32,6.97,1.31,10.21,3.2,10.51,8.74,14.2,20.25,13.95,11.93-.25,22.38,8.91,23.52,21.37,1.83,19.97-10.99,34.24-28.97,37.96-20.79,4.3-43.78-7.03-53.25-25.03-2.98-5.66-4-5.7-7.94-.41-11.83,15.85-28.06,24.07-47.12,27.48-23.49,4.21-45.11-.32-64.69-14-14.37-10.04-23.21-24.25-29.08-40.36-4.27-11.69-6.44-23.81-7.31-36.37-1.52-22.18,2.14-43.31,10.26-63.77,5.4-13.6,12.89-25.89,22.68-36.96,11.6-13.11,25.48-22.38,41.96-27.81,16.05-5.3,32.42-6.64,48.75-1.62,8.27,2.54,16.27,6.11,22.54,12.44,2.68,2.7,4.44,3.53,7.29-.17,9.24-11.99,24.5-12.89,35.44-7.11,8.58,4.54,13.29,13.11,13.29,30.07Zm-145,83.98c0,18.16,1.86,25.15,9.87,37.19,7.57,11.37,24.49,15.91,36.73,10.28,14.22-6.54,21.53-18.51,26.39-32.5,3.73-10.72,5.29-21.81,6.26-33.13.93-10.77,1.58-21.3-2.26-31.61-5.82-15.61-21.88-24.12-38.65-19.66-15.9,4.23-24.77,16.42-31.05,30.16-5.59,12.23-7.83,25.62-7.29,39.26Z"/>
  <path class="cls-2" d="m346.23,157.37c24.28.62,44.81,9.32,61.37,26.49,10.92,11.32,18.51,24.68,20.37,40.92,3.07,26.83-9.88,43.53-31.48,52.66-25.77,10.89-52.81,17.42-79.89,23.77-4.29,1-4.25,3.08-3.34,5.95,4.27,13.49,14.08,21.31,27.16,25.16,20.88,6.15,38.58-.87,54.28-14.35,11.62-9.97,26.21-2.04,30.19,8.21,5.2,13.38.36,24.43-8.52,34.11-11.83,12.9-27.24,19.52-44.03,23.04-18.72,3.92-37.19,2.67-55.23-3.85-16.84-6.09-30.4-16.56-41.22-30.79-12.59-16.56-19.1-35.59-21.86-55.83-2.76-20.23-1.15-40.26,4.74-60,5.31-17.82,13.61-34,26.06-47.63,10.25-11.23,22.85-19.72,37.78-23.69,7.69-2.05,15.73-2.81,23.61-4.15Zm26.02,59.14c-12.08-13.31-31.96-12.97-45.5-1.51-10.6,8.97-13.91,21.34-15.83,34.3-.53,3.55,1.89,5.78,5.68,5.13,4.64-.79,9.31-1.7,13.79-3.11,13-4.09,26.01-8.21,38.81-12.87,4.09-1.49,15.09-6.83,3.05-21.94Z"/>
</svg>